<svg width="512" height="512" viewBox="0 0 512 512" fill="none" xmlns="http://www.w3.org/2000/svg">
  <rect width="512" height="512" rx="128" fill="#0D2A4A"/>
  <path d="M256 384L384 128H128L256 384Z" fill="#C5A880"/>
  <path d="M256 384L320 128H192L256 384Z" fill="#E6D2B5"/>
  <path d="M256 70C153.269 70 70 153.269 70 256C70 358.731 153.269 442 256 442C358.731 442 442 358.731 442 256C442 153.269 358.731 70 256 70ZM256 400C176.467 400 112 335.533 112 256C112 176.467 176.467 112 256 112C335.533 112 400 176.467 400 256C400 335.533 335.533 400 256 400Z" fill="#C5A880"/>
</svg>
